<?xml version="1.0" encoding="utf-8"?>
<!-- Generator: Adobe Illustrator 15.0.0, SVG Export Plug-In  -->
<!DOCTYPE svg PUBLIC "-//W3C//DTD SVG 1.1//EN" "http://www.w3.org/Graphics/SVG/1.1/DTD/svg11.dtd" [
	<!ENTITY ns_flows "http://ns.adobe.com/Flows/1.0/">
]>
<svg version="1.1"
	 xmlns="http://www.w3.org/2000/svg" xmlns:xlink="http://www.w3.org/1999/xlink" xmlns:a="http://ns.adobe.com/AdobeSVGViewerExtensions/3.0/"
	 x="0px" y="0px" width="134px" height="119px" viewBox="-0.263 -0.159 134 119"
	 overflow="visible" enable-background="new -0.263 -0.159 134 119" xml:space="preserve">
<defs>
</defs>
<g>
	<g>
		<g opacity="0.2">
			<g>
				<defs>
					<rect id="SVGID_17_" x="34.154" y="10.504" width="21.583" height="21.582"/>
				</defs>
				<clipPath id="SVGID_18_">
					<use xlink:href="#SVGID_17_"  overflow="visible"/>
				</clipPath>
				
					<rect x="37.778" y="14.127" transform="matrix(0.5 0.866 -0.866 0.5 40.9161 -28.2768)" clip-path="url(#SVGID_18_)" fill="none" stroke="#008FFF" stroke-width="2" stroke-linecap="round" stroke-linejoin="round" stroke-miterlimit="10" width="14.337" height="14.335"/>
			</g>
		</g>
		<path fill="#008FFF" d="M95.095,2c2.544,0,5.886,1.932,7.153,4.136l28.314,49.073c1.278,2.187,1.279,6.044,0,8.256l-28.316,49.049
			c-1.271,2.203-4.623,4.138-7.17,4.141H38.427c-2.541,0-5.883-1.932-7.152-4.136L2.952,63.471c-1.27-2.215-1.271-6.087-0.002-8.285
			L31.269,6.138c1.269-2.198,4.603-4.126,7.163-4.126L95.084,2H95.095 M95.095,0h-0.011L38.431,0.012h-0.027
			c-3.24,0-7.239,2.305-8.867,5.126L1.219,54.186c-1.629,2.82-1.622,7.455-0.001,10.28l28.325,49.053
			c1.627,2.826,5.622,5.136,8.884,5.136h0.012h56.638c3.264-0.004,7.273-2.319,8.902-5.141l28.316-49.049
			c1.635-2.828,1.635-7.46-0.006-10.265L103.981,5.136C102.356,2.31,98.357,0,95.095,0"/>
		<circle fill="none" stroke="#008FFF" stroke-width="2" stroke-miterlimit="10" cx="67.071" cy="59.507" r="8.776"/>
		<g opacity="0.2">
			<g>
				<defs>
					<path id="SVGID_16_" d="M67.071,59.506L67.071,59.506z"/>
				</defs>
				<clipPath id="SVGID_19_">
					<use xlink:href="#SVGID_16_"  overflow="visible"/>
				</clipPath>
			</g>
		</g>
		<g opacity="0.2">
			<g>
				<defs>
					<path id="SVGID_15_" d="M67.071,59.506L67.071,59.506z"/>
				</defs>
				<clipPath id="SVGID_20_">
					<use xlink:href="#SVGID_15_"  overflow="visible"/>
				</clipPath>
			</g>
		</g>
		<g opacity="0.2">
			<g>
				<defs>
					<rect id="SVGID_14_" x="107.411" y="28.275" width="9.104" height="10.837"/>
				</defs>
				<clipPath id="SVGID_21_">
					<use xlink:href="#SVGID_14_"  overflow="visible"/>
				</clipPath>
				
					<path clip-path="url(#SVGID_21_)" fill="none" stroke="#008FFF" stroke-width="2" stroke-linecap="round" stroke-miterlimit="10" d="
					M113.145,38.112c2.266-1.309,3.041-4.203,1.734-6.469c-1.307-2.263-4.205-3.04-6.469-1.733"/>
			</g>
		</g>
		<g opacity="0.2">
			<g>
				<defs>
					<rect id="SVGID_13_" x="107.411" y="28.275" width="9.104" height="10.837"/>
				</defs>
				<clipPath id="SVGID_22_">
					<use xlink:href="#SVGID_13_"  overflow="visible"/>
				</clipPath>
				
					<path clip-path="url(#SVGID_22_)" fill="none" stroke="#008FFF" stroke-width="2" stroke-linecap="round" stroke-miterlimit="10" d="
					M113.145,38.112c2.266-1.309,3.041-4.203,1.734-6.469c-1.307-2.263-4.205-3.04-6.469-1.733"/>
			</g>
		</g>
		<g opacity="0.2">
			<g>
				<defs>
					<rect id="SVGID_12_" x="61.248" y="3.257" width="11.472" height="6.735"/>
				</defs>
				<clipPath id="SVGID_23_">
					<use xlink:href="#SVGID_12_"  overflow="visible"/>
				</clipPath>
				
					<path clip-path="url(#SVGID_23_)" fill="none" stroke="#008FFF" stroke-width="2" stroke-linecap="round" stroke-miterlimit="10" d="
					M71.719,8.993c-0.002-2.616-2.121-4.736-4.736-4.735c-2.617,0-4.736,2.12-4.735,4.734"/>
			</g>
		</g>
		<g opacity="0.2">
			<g>
				<defs>
					<rect id="SVGID_11_" x="16.735" y="28.375" width="9.104" height="10.836"/>
				</defs>
				<clipPath id="SVGID_24_">
					<use xlink:href="#SVGID_11_"  overflow="visible"/>
				</clipPath>
				
					<path clip-path="url(#SVGID_24_)" fill="none" stroke="#008FFF" stroke-width="2" stroke-linecap="round" stroke-miterlimit="10" d="
					M24.84,30.009c-2.266-1.308-5.161-0.532-6.47,1.733c-1.307,2.265-0.53,5.161,1.735,6.468"/>
			</g>
		</g>
		<g opacity="0.2">
			<g>
				<defs>
					<rect id="SVGID_10_" x="17.628" y="79.901" width="9.105" height="10.838"/>
				</defs>
				<clipPath id="SVGID_25_">
					<use xlink:href="#SVGID_10_"  overflow="visible"/>
				</clipPath>
				
					<path clip-path="url(#SVGID_25_)" fill="none" stroke="#008FFF" stroke-width="2" stroke-linecap="round" stroke-miterlimit="10" d="
					M20.997,80.901c-2.265,1.309-3.042,4.205-1.734,6.469c1.308,2.266,4.204,3.041,6.469,1.734"/>
			</g>
		</g>
		<g opacity="0.2">
			<g>
				<defs>
					<rect id="SVGID_9_" x="61.111" y="109.106" width="11.472" height="6.735"/>
				</defs>
				<clipPath id="SVGID_26_">
					<use xlink:href="#SVGID_9_"  overflow="visible"/>
				</clipPath>
				
					<path clip-path="url(#SVGID_26_)" fill="none" stroke="#008FFF" stroke-width="2" stroke-linecap="round" stroke-miterlimit="10" d="
					M62.11,110.106c0,2.614,2.12,4.734,4.734,4.735c2.617,0.001,4.736-2.12,4.738-4.735"/>
			</g>
		</g>
		<g opacity="0.2">
			<g>
				<defs>
					<rect id="SVGID_8_" x="107.567" y="79.377" width="9.104" height="10.838"/>
				</defs>
				<clipPath id="SVGID_27_">
					<use xlink:href="#SVGID_8_"  overflow="visible"/>
				</clipPath>
				
					<path clip-path="url(#SVGID_27_)" fill="none" stroke="#008FFF" stroke-width="2" stroke-linecap="round" stroke-miterlimit="10" d="
					M108.567,88.58c2.264,1.308,5.16,0.531,6.469-1.73c1.307-2.268,0.531-5.164-1.734-6.472"/>
			</g>
		</g>
		
			<rect x="49.533" y="44.934" transform="matrix(0.866 -0.5 0.5 0.866 -20.7864 41.2894)" fill="none" stroke="#008FFF" stroke-width="2" stroke-linecap="round" stroke-linejoin="round" stroke-miterlimit="10" width="34.247" height="28.999"/>
		<g opacity="0.2">
			<g>
				<defs>
					<rect id="SVGID_7_" x="81.52" y="92.835" width="19.672" height="17.037"/>
				</defs>
				<clipPath id="SVGID_28_">
					<use xlink:href="#SVGID_7_"  overflow="visible"/>
				</clipPath>
				<path clip-path="url(#SVGID_28_)" fill="#008FFF" d="M97.833,101.772c-0.496-0.861-0.201-1.963,0.658-2.461
					c0.861-0.497,1.963-0.202,2.459,0.66c0.498,0.859,0.203,1.963-0.656,2.461C99.43,102.926,98.329,102.632,97.833,101.772"/>
				<path clip-path="url(#SVGID_28_)" fill="#008FFF" d="M91.596,105.372c-0.496-0.86-0.199-1.963,0.66-2.459
					c0.861-0.498,1.963-0.204,2.459,0.658c0.496,0.86,0.201,1.963-0.658,2.459C93.196,106.527,92.094,106.233,91.596,105.372"/>
				<path clip-path="url(#SVGID_28_)" fill="#008FFF" d="M85.362,108.969c-0.496-0.858-0.203-1.961,0.658-2.457
					s1.963-0.201,2.461,0.659c0.494,0.861,0.199,1.962-0.66,2.458C86.961,110.129,85.86,109.833,85.362,108.969"/>
				<path clip-path="url(#SVGID_28_)" fill="#008FFF" d="M94.233,95.536c-0.498-0.861-0.203-1.961,0.66-2.459
					c0.859-0.496,1.961-0.202,2.457,0.658c0.5,0.86,0.203,1.963-0.656,2.459C95.831,96.692,94.731,96.396,94.233,95.536"/>
				<path clip-path="url(#SVGID_28_)" fill="#008FFF" d="M87.997,99.137c-0.498-0.861-0.201-1.965,0.662-2.461
					c0.859-0.495,1.959-0.201,2.457,0.66c0.496,0.861,0.201,1.961-0.658,2.458C89.596,100.292,88.493,99.997,87.997,99.137"/>
				<path clip-path="url(#SVGID_28_)" fill="#008FFF" d="M81.762,102.736c-0.498-0.86-0.203-1.962,0.66-2.458
					c0.857-0.496,1.959-0.201,2.457,0.658c0.496,0.861,0.201,1.963-0.658,2.459S82.258,103.596,81.762,102.736"/>
			</g>
		</g>
		<g opacity="0.2">
			<g>
				<defs>
					<rect id="SVGID_6_" x="85.338" y="38.317" width="13.127" height="13.126"/>
				</defs>
				<clipPath id="SVGID_29_">
					<use xlink:href="#SVGID_6_"  overflow="visible"/>
				</clipPath>
				
					<circle clip-path="url(#SVGID_29_)" fill="none" stroke="#008FFF" stroke-width="2" stroke-miterlimit="10" cx="91.902" cy="44.88" r="5.563"/>
			</g>
		</g>
		<g opacity="0.2">
			<g>
				<defs>
					<rect id="SVGID_5_" x="85.338" y="67.455" width="13.127" height="12.126"/>
				</defs>
				<clipPath id="SVGID_30_">
					<use xlink:href="#SVGID_5_"  overflow="visible"/>
				</clipPath>
				
					<circle clip-path="url(#SVGID_30_)" fill="none" stroke="#008FFF" stroke-width="2" stroke-miterlimit="10" cx="91.902" cy="74.018" r="5.563"/>
			</g>
		</g>
		<g opacity="0.2">
			<g>
				<defs>
					<rect id="SVGID_4_" x="34.9" y="38.318" width="13.126" height="13.127"/>
				</defs>
				<clipPath id="SVGID_31_">
					<use xlink:href="#SVGID_4_"  overflow="visible"/>
				</clipPath>
				<path clip-path="url(#SVGID_31_)" fill="none" stroke="#008FFF" stroke-width="2" stroke-miterlimit="10" d="M41.463,50.446
					c-3.072-0.001-5.563-2.491-5.563-5.565c-0.001-3.073,2.49-5.563,5.562-5.562c3.073-0.002,5.563,2.489,5.563,5.564
					C47.025,47.954,44.534,50.444,41.463,50.446z"/>
			</g>
		</g>
		<g opacity="0.2">
			<g>
				<defs>
					<rect id="SVGID_3_" x="60.059" y="23.783" width="13.127" height="13.128"/>
				</defs>
				<clipPath id="SVGID_32_">
					<use xlink:href="#SVGID_3_"  overflow="visible"/>
				</clipPath>
				<path clip-path="url(#SVGID_32_)" fill="none" stroke="#008FFF" stroke-width="2" stroke-miterlimit="10" d="M66.622,35.911
					c-3.073,0-5.563-2.492-5.563-5.565c0-3.072,2.491-5.564,5.564-5.562c3.073-0.002,5.563,2.489,5.563,5.562
					C72.188,33.418,69.696,35.91,66.622,35.911z"/>
			</g>
		</g>
		<g opacity="0.2">
			<g>
				<defs>
					<rect id="SVGID_2_" x="60.059" y="81.927" width="13.127" height="13.128"/>
				</defs>
				<clipPath id="SVGID_33_">
					<use xlink:href="#SVGID_2_"  overflow="visible"/>
				</clipPath>
				
					<circle clip-path="url(#SVGID_33_)" fill="none" stroke="#008FFF" stroke-width="2" stroke-miterlimit="10" cx="66.623" cy="88.491" r="5.564"/>
			</g>
		</g>
		<g opacity="0.2">
			<g>
				<defs>
					<rect id="SVGID_1_" x="34.899" y="67.453" width="13.127" height="13.128"/>
				</defs>
				<clipPath id="SVGID_34_">
					<use xlink:href="#SVGID_1_"  overflow="visible"/>
				</clipPath>
				<path clip-path="url(#SVGID_34_)" fill="none" stroke="#008FFF" stroke-width="2" stroke-miterlimit="10" d="M41.463,79.581
					c-3.074,0-5.564-2.489-5.564-5.562c-0.001-3.072,2.49-5.564,5.563-5.565c3.073,0.003,5.563,2.493,5.563,5.565
					S44.535,79.581,41.463,79.581z"/>
			</g>
		</g>
	</g>
</g>
</svg>
