<?xml version="1.0" encoding="utf-8"?>
<!-- Generator: Adobe Illustrator 15.0.0, SVG Export Plug-In  -->
<!DOCTYPE svg PUBLIC "-//W3C//DTD SVG 1.1//EN" "http://www.w3.org/Graphics/SVG/1.1/DTD/svg11.dtd" [
	<!ENTITY ns_flows "http://ns.adobe.com/Flows/1.0/">
]>
<svg version="1.1"
	 xmlns="http://www.w3.org/2000/svg" xmlns:xlink="http://www.w3.org/1999/xlink" xmlns:a="http://ns.adobe.com/AdobeSVGViewerExtensions/3.0/"
	 x="0px" y="0px" width="153px" height="168px" viewBox="-0.789 -0.888 153 168"
	 overflow="visible" enable-background="new -0.789 -0.888 153 168" xml:space="preserve">
<defs>
</defs>
<g>
	<g>
		<g opacity="0.2">
			<g>
				<defs>
					<rect id="SVGID_10_" x="42.795" y="34.109" width="21.582" height="21.582"/>
				</defs>
				<clipPath id="SVGID_11_">
					<use xlink:href="#SVGID_10_"  overflow="visible"/>
				</clipPath>
				
					<rect x="46.418" y="37.732" transform="matrix(0.5 0.866 -0.866 0.5 65.679 -23.9572)" clip-path="url(#SVGID_11_)" fill="none" stroke="#008FFF" stroke-width="2" stroke-linecap="round" stroke-linejoin="round" stroke-miterlimit="10" width="14.337" height="14.334"/>
			</g>
		</g>
		<path fill="#008FFF" d="M103.735,25.604c2.545,0,5.887,1.932,7.154,4.136l28.314,49.073c1.277,2.187,1.279,6.044,0,8.256
			l-28.316,49.049c-1.271,2.203-4.623,4.138-7.17,4.141H47.068c-2.542,0-5.884-1.932-7.152-4.136L11.593,87.076
			c-1.27-2.216-1.271-6.087-0.002-8.285L39.91,29.743c1.268-2.198,4.602-4.126,7.163-4.126l56.652-0.012H103.735 M103.735,23.604
			h-0.01l-56.652,0.012h-0.028c-3.24,0-7.24,2.305-8.867,5.126L9.86,77.791c-1.629,2.82-1.621,7.455-0.002,10.28l28.326,49.053
			c1.627,2.825,5.622,5.136,8.884,5.136h0.013h56.636c3.264-0.004,7.273-2.319,8.902-5.141l28.316-49.049
			c1.635-2.828,1.635-7.46-0.006-10.265l-28.309-49.064C110.997,25.915,106.997,23.604,103.735,23.604"/>
		<g opacity="0.2">
			<g>
				<defs>
					<rect id="SVGID_9_" x="65.936" y="73.335" width="19.553" height="19.553"/>
				</defs>
				<clipPath id="SVGID_12_">
					<use xlink:href="#SVGID_9_"  overflow="visible"/>
				</clipPath>
				<path clip-path="url(#SVGID_12_)" fill="none" stroke="#008FFF" stroke-width="2" stroke-miterlimit="10" d="M71.325,90.712
					c4.197,2.422,9.563,0.983,11.988-3.213c2.422-4.197,0.984-9.564-3.215-11.988c-4.195-2.422-9.564-0.985-11.986,3.212
					C65.688,82.92,67.128,88.288,71.325,90.712z"/>
			</g>
		</g>
		
			<line fill="none" stroke="#FF9D7B" stroke-width="2" stroke-linecap="round" stroke-miterlimit="10" x1="132.1" y1="115.667" x2="146.823" y2="124.167"/>
		
			<line fill="none" stroke="#FF9D7B" stroke-width="2" stroke-linecap="round" stroke-miterlimit="10" x1="134.448" y1="111.863" x2="150.422" y2="117.675"/>
		
			<line fill="none" stroke="#FF9D7B" stroke-width="2" stroke-linecap="round" stroke-miterlimit="10" x1="130" y1="119.563" x2="143.024" y2="130.49"/>
		<path fill="none" stroke="#008FFF" stroke-width="2" stroke-linecap="round" stroke-miterlimit="10" d="M121.786,61.717
			c2.266-1.309,3.041-4.203,1.734-6.469c-1.307-2.263-4.205-3.04-6.469-1.733"/>
		<path fill="none" stroke="#008FFF" stroke-width="2" stroke-linecap="round" stroke-miterlimit="10" d="M121.786,61.717
			c2.266-1.309,3.041-4.203,1.734-6.469c-1.307-2.263-4.205-3.04-6.469-1.733"/>
		<path fill="none" stroke="#008FFF" stroke-width="2" stroke-linecap="round" stroke-miterlimit="10" d="M80.36,32.597
			c-0.002-2.616-2.121-4.736-4.736-4.735c-2.618,0-4.737,2.12-4.735,4.734"/>
		<path fill="none" stroke="#008FFF" stroke-width="2" stroke-linecap="round" stroke-miterlimit="10" d="M33.481,53.614
			c-2.266-1.308-5.162-0.532-6.471,1.733c-1.306,2.265-0.529,5.161,1.735,6.468"/>
		<path fill="none" stroke="#008FFF" stroke-width="2" stroke-linecap="round" stroke-miterlimit="10" d="M29.637,104.505
			c-2.264,1.309-3.041,4.205-1.734,6.469c1.308,2.266,4.205,3.041,6.47,1.734"/>
		<path fill="none" stroke="#008FFF" stroke-width="2" stroke-linecap="round" stroke-miterlimit="10" d="M70.75,133.71
			c0,2.614,2.121,4.734,4.734,4.735c2.618,0.001,4.737-2.12,4.739-4.735"/>
		<path fill="none" stroke="#008FFF" stroke-width="2" stroke-linecap="round" stroke-miterlimit="10" d="M117.208,112.184
			c2.264,1.308,5.16,0.531,6.469-1.73c1.307-2.268,0.531-5.164-1.734-6.472"/>
		
			<line fill="none" stroke="#FF9D7B" stroke-width="2" stroke-linecap="round" stroke-miterlimit="10" x1="132.102" y1="50.556" x2="146.823" y2="42.055"/>
		
			<line fill="none" stroke="#FF9D7B" stroke-width="2" stroke-linecap="round" stroke-miterlimit="10" x1="129.977" y1="46.621" x2="143" y2="35.693"/>
		
			<line fill="none" stroke="#FF9D7B" stroke-width="2" stroke-linecap="round" stroke-miterlimit="10" x1="134.424" y1="54.321" x2="150.399" y2="48.508"/>
		
			<line fill="none" stroke="#FF9D7B" stroke-width="2" stroke-linecap="round" stroke-miterlimit="10" x1="75.711" y1="18" x2="75.711" y2="1"/>
		
			<line fill="none" stroke="#FF9D7B" stroke-width="2" stroke-linecap="round" stroke-miterlimit="10" x1="71.243" y1="17.871" x2="68.292" y2="1.128"/>
		
			<line fill="none" stroke="#FF9D7B" stroke-width="2" stroke-linecap="round" stroke-miterlimit="10" x1="80.133" y1="17.87" x2="83.088" y2="1.129"/>
		
			<line fill="none" stroke="#FF9D7B" stroke-width="2" stroke-linecap="round" stroke-miterlimit="10" x1="19.323" y1="50.555" x2="4.6" y2="42.055"/>
		
			<line fill="none" stroke="#FF9D7B" stroke-width="2" stroke-linecap="round" stroke-miterlimit="10" x1="16.977" y1="54.361" x2="1" y2="48.546"/>
		
			<line fill="none" stroke="#FF9D7B" stroke-width="2" stroke-linecap="round" stroke-miterlimit="10" x1="21.422" y1="46.66" x2="8.399" y2="35.731"/>
		
			<line fill="none" stroke="#FF9D7B" stroke-width="2" stroke-linecap="round" stroke-miterlimit="10" x1="19.323" y1="115.667" x2="4.6" y2="124.167"/>
		
			<line fill="none" stroke="#FF9D7B" stroke-width="2" stroke-linecap="round" stroke-miterlimit="10" x1="21.446" y1="119.602" x2="8.423" y2="130.53"/>
		
			<line fill="none" stroke="#FF9D7B" stroke-width="2" stroke-linecap="round" stroke-miterlimit="10" x1="17" y1="111.902" x2="1.023" y2="117.714"/>
		
			<line fill="none" stroke="#FF9D7B" stroke-width="2" stroke-linecap="round" stroke-miterlimit="10" x1="75.711" y1="148.222" x2="75.711" y2="165.224"/>
		
			<line fill="none" stroke="#FF9D7B" stroke-width="2" stroke-linecap="round" stroke-miterlimit="10" x1="80.18" y1="148.351" x2="83.133" y2="165.095"/>
		
			<line fill="none" stroke="#FF9D7B" stroke-width="2" stroke-linecap="round" stroke-miterlimit="10" x1="71.288" y1="148.353" x2="68.336" y2="165.095"/>
		<g opacity="0.2">
			<g>
				<defs>
					<rect id="SVGID_8_" x="52.219" y="60.922" width="46.156" height="44.236"/>
				</defs>
				<clipPath id="SVGID_13_">
					<use xlink:href="#SVGID_8_"  overflow="visible"/>
				</clipPath>
				
					<rect x="58.174" y="68.539" transform="matrix(0.866 -0.5 0.5 0.866 -31.4312 48.7735)" clip-path="url(#SVGID_13_)" fill="none" stroke="#008FFF" stroke-width="2" stroke-linecap="round" stroke-linejoin="round" stroke-miterlimit="10" width="34.246" height="28.999"/>
			</g>
		</g>
		<g opacity="0.2">
			<g>
				<defs>
					<rect id="SVGID_7_" x="90.161" y="116.44" width="19.672" height="17.037"/>
				</defs>
				<clipPath id="SVGID_14_">
					<use xlink:href="#SVGID_7_"  overflow="visible"/>
				</clipPath>
				<path clip-path="url(#SVGID_14_)" fill="#008FFF" d="M106.473,125.376c-0.496-0.861-0.201-1.963,0.658-2.461
					c0.861-0.497,1.963-0.202,2.459,0.66c0.498,0.859,0.203,1.963-0.656,2.461C108.071,126.531,106.969,126.237,106.473,125.376"/>
				<path clip-path="url(#SVGID_14_)" fill="#008FFF" d="M100.237,128.976c-0.496-0.86-0.199-1.963,0.66-2.459
					c0.861-0.498,1.963-0.204,2.459,0.658c0.496,0.86,0.201,1.963-0.658,2.459C101.836,130.131,100.735,129.837,100.237,128.976"/>
				<path clip-path="url(#SVGID_14_)" fill="#008FFF" d="M94.002,132.574c-0.496-0.858-0.203-1.961,0.658-2.457
					s1.963-0.201,2.461,0.659c0.494,0.861,0.199,1.962-0.66,2.458C95.602,133.734,94.5,133.437,94.002,132.574"/>
				<path clip-path="url(#SVGID_14_)" fill="#008FFF" d="M102.874,119.14c-0.498-0.861-0.203-1.961,0.66-2.459
					c0.859-0.496,1.961-0.202,2.457,0.658c0.5,0.86,0.203,1.963-0.656,2.459C104.471,120.296,103.372,120,102.874,119.14"/>
				<path clip-path="url(#SVGID_14_)" fill="#008FFF" d="M96.637,122.742c-0.498-0.861-0.201-1.965,0.662-2.461
					c0.859-0.495,1.959-0.201,2.457,0.66c0.496,0.861,0.201,1.961-0.658,2.458C98.237,123.896,97.133,123.601,96.637,122.742"/>
				<path clip-path="url(#SVGID_14_)" fill="#008FFF" d="M90.403,126.34c-0.498-0.86-0.203-1.962,0.66-2.458
					c0.857-0.496,1.959-0.201,2.457,0.658c0.496,0.861,0.201,1.963-0.658,2.459S90.899,127.201,90.403,126.34"/>
			</g>
		</g>
		<g opacity="0.2">
			<g>
				<defs>
					<rect id="SVGID_6_" x="93.979" y="61.922" width="13.127" height="13.126"/>
				</defs>
				<clipPath id="SVGID_15_">
					<use xlink:href="#SVGID_6_"  overflow="visible"/>
				</clipPath>
				
					<circle clip-path="url(#SVGID_15_)" fill="none" stroke="#008FFF" stroke-width="2" stroke-miterlimit="10" cx="100.542" cy="68.485" r="5.563"/>
			</g>
		</g>
		<g opacity="0.2">
			<g>
				<defs>
					<rect id="SVGID_5_" x="93.979" y="91.059" width="13.127" height="13.126"/>
				</defs>
				<clipPath id="SVGID_16_">
					<use xlink:href="#SVGID_5_"  overflow="visible"/>
				</clipPath>
				
					<circle clip-path="url(#SVGID_16_)" fill="none" stroke="#008FFF" stroke-width="2" stroke-miterlimit="10" cx="100.542" cy="97.622" r="5.563"/>
			</g>
		</g>
		<g opacity="0.2">
			<g>
				<defs>
					<rect id="SVGID_4_" x="43.54" y="61.923" width="13.127" height="13.127"/>
				</defs>
				<clipPath id="SVGID_17_">
					<use xlink:href="#SVGID_4_"  overflow="visible"/>
				</clipPath>
				<path clip-path="url(#SVGID_17_)" fill="none" stroke="#008FFF" stroke-width="2" stroke-miterlimit="10" d="M50.104,74.05
					c-3.072-0.001-5.564-2.491-5.564-5.565c0-3.073,2.49-5.563,5.562-5.562c3.074-0.002,5.564,2.489,5.564,5.564
					C55.666,71.558,53.174,74.048,50.104,74.05z"/>
			</g>
		</g>
		<g opacity="0.2">
			<g>
				<defs>
					<rect id="SVGID_3_" x="68.699" y="47.388" width="13.127" height="13.128"/>
				</defs>
				<clipPath id="SVGID_18_">
					<use xlink:href="#SVGID_3_"  overflow="visible"/>
				</clipPath>
				<path clip-path="url(#SVGID_18_)" fill="none" stroke="#008FFF" stroke-width="2" stroke-miterlimit="10" d="M75.262,59.516
					c-3.072,0-5.562-2.492-5.562-5.565c0-3.072,2.49-5.564,5.564-5.562c3.072-0.002,5.562,2.489,5.562,5.562
					C80.829,57.022,78.336,59.515,75.262,59.516z"/>
			</g>
		</g>
		<g opacity="0.2">
			<g>
				<defs>
					<rect id="SVGID_2_" x="68.699" y="105.532" width="13.127" height="13.128"/>
				</defs>
				<clipPath id="SVGID_19_">
					<use xlink:href="#SVGID_2_"  overflow="visible"/>
				</clipPath>
				
					<circle clip-path="url(#SVGID_19_)" fill="none" stroke="#008FFF" stroke-width="2" stroke-miterlimit="10" cx="75.263" cy="112.096" r="5.564"/>
			</g>
		</g>
		<g opacity="0.2">
			<g>
				<defs>
					<rect id="SVGID_1_" x="43.54" y="91.057" width="13.127" height="13.128"/>
				</defs>
				<clipPath id="SVGID_20_">
					<use xlink:href="#SVGID_1_"  overflow="visible"/>
				</clipPath>
				<path clip-path="url(#SVGID_20_)" fill="none" stroke="#008FFF" stroke-width="2" stroke-miterlimit="10" d="M50.104,103.185
					c-3.074,0-5.564-2.489-5.564-5.562c-0.002-3.072,2.49-5.564,5.562-5.565c3.074,0.003,5.564,2.493,5.564,5.565
					C55.665,100.695,53.176,103.185,50.104,103.185z"/>
			</g>
		</g>
	</g>
</g>
</svg>
