<?xml version="1.0" encoding="utf-8"?>
<!-- Generator: Adobe Illustrator 15.0.0, SVG Export Plug-In  -->
<!DOCTYPE svg PUBLIC "-//W3C//DTD SVG 1.1//EN" "http://www.w3.org/Graphics/SVG/1.1/DTD/svg11.dtd" [
	<!ENTITY ns_flows "http://ns.adobe.com/Flows/1.0/">
]>
<svg version="1.1"
	 xmlns="http://www.w3.org/2000/svg" xmlns:xlink="http://www.w3.org/1999/xlink" xmlns:a="http://ns.adobe.com/AdobeSVGViewerExtensions/3.0/"
	 x="0px" y="0px" width="134px" height="119px" viewBox="-0.323 0.007 134 119"
	 overflow="visible" enable-background="new -0.323 0.007 134 119" xml:space="preserve">
<defs>
</defs>
<g>
	<g>
		<g opacity="0.2">
			<g>
				<defs>
					<rect id="SVGID_13_" x="34.154" y="10.504" width="21.583" height="21.582"/>
				</defs>
				<clipPath id="SVGID_14_">
					<use xlink:href="#SVGID_13_"  overflow="visible"/>
				</clipPath>
				
					<rect x="37.778" y="14.127" transform="matrix(0.5 0.866 -0.866 0.5 40.9164 -28.2773)" clip-path="url(#SVGID_14_)" fill="none" stroke="#008FFF" stroke-width="2" stroke-linecap="round" stroke-linejoin="round" stroke-miterlimit="10" width="14.337" height="14.335"/>
			</g>
		</g>
		<path fill="#008FFF" d="M95.095,2c2.545,0,5.887,1.932,7.152,4.136l28.316,49.073c1.277,2.187,1.277,6.044,0,8.256l-28.318,49.049
			c-1.27,2.203-4.621,4.138-7.17,4.141H38.428c-2.542,0-5.884-1.932-7.153-4.136L2.953,63.471c-1.271-2.216-1.272-6.087-0.002-8.285
			L31.269,6.138c1.269-2.198,4.603-4.126,7.163-4.126L95.083,2H95.095 M95.095,0h-0.012L38.432,0.012h-0.028
			c-3.239,0-7.239,2.305-8.867,5.126L1.219,54.186c-1.629,2.82-1.621,7.455-0.001,10.28l28.325,49.053
			c1.627,2.825,5.623,5.136,8.885,5.136h0.012h56.635c3.264-0.004,7.275-2.319,8.904-5.141l28.316-49.049
			c1.635-2.828,1.635-7.46-0.008-10.265L103.982,5.136C102.357,2.31,98.357,0,95.095,0"/>
		<g opacity="0.2">
			<g>
				<defs>
					<rect id="SVGID_12_" x="57.295" y="49.73" width="19.554" height="19.553"/>
				</defs>
				<clipPath id="SVGID_15_">
					<use xlink:href="#SVGID_12_"  overflow="visible"/>
				</clipPath>
				
					<circle clip-path="url(#SVGID_15_)" fill="none" stroke="#008FFF" stroke-width="2" stroke-miterlimit="10" cx="67.071" cy="59.507" r="8.776"/>
			</g>
		</g>
		<g opacity="0.2">
			<g>
				<defs>
					<path id="SVGID_11_" d="M67.072,59.506L67.072,59.506z"/>
				</defs>
				<clipPath id="SVGID_16_">
					<use xlink:href="#SVGID_11_"  overflow="visible"/>
				</clipPath>
			</g>
		</g>
		<g opacity="0.2">
			<g>
				<defs>
					<path id="SVGID_10_" d="M67.072,59.506L67.072,59.506z"/>
				</defs>
				<clipPath id="SVGID_17_">
					<use xlink:href="#SVGID_10_"  overflow="visible"/>
				</clipPath>
			</g>
		</g>
		<g opacity="0.2">
			<g>
				<defs>
					<rect id="SVGID_9_" x="107.412" y="28.275" width="9.104" height="10.837"/>
				</defs>
				<clipPath id="SVGID_18_">
					<use xlink:href="#SVGID_9_"  overflow="visible"/>
				</clipPath>
				
					<path clip-path="url(#SVGID_18_)" fill="none" stroke="#008FFF" stroke-width="2" stroke-linecap="round" stroke-miterlimit="10" d="
					M113.146,38.112c2.266-1.309,3.041-4.203,1.734-6.469c-1.307-2.263-4.205-3.04-6.469-1.733"/>
			</g>
		</g>
		<g opacity="0.2">
			<g>
				<defs>
					<rect id="SVGID_8_" x="107.412" y="28.275" width="9.104" height="10.837"/>
				</defs>
				<clipPath id="SVGID_19_">
					<use xlink:href="#SVGID_8_"  overflow="visible"/>
				</clipPath>
				
					<path clip-path="url(#SVGID_19_)" fill="none" stroke="#008FFF" stroke-width="2" stroke-linecap="round" stroke-miterlimit="10" d="
					M113.146,38.112c2.266-1.309,3.041-4.203,1.734-6.469c-1.307-2.263-4.205-3.04-6.469-1.733"/>
			</g>
		</g>
		<g opacity="0.2">
			<g>
				<defs>
					<rect id="SVGID_7_" x="61.248" y="3.257" width="11.472" height="6.735"/>
				</defs>
				<clipPath id="SVGID_20_">
					<use xlink:href="#SVGID_7_"  overflow="visible"/>
				</clipPath>
				
					<path clip-path="url(#SVGID_20_)" fill="none" stroke="#008FFF" stroke-width="2" stroke-linecap="round" stroke-miterlimit="10" d="
					M71.718,8.993c0-2.616-2.119-4.736-4.734-4.735c-2.618,0-4.737,2.12-4.736,4.734"/>
			</g>
		</g>
		<g opacity="0.2">
			<g>
				<defs>
					<rect id="SVGID_6_" x="16.736" y="28.375" width="9.104" height="10.836"/>
				</defs>
				<clipPath id="SVGID_21_">
					<use xlink:href="#SVGID_6_"  overflow="visible"/>
				</clipPath>
				
					<path clip-path="url(#SVGID_21_)" fill="none" stroke="#008FFF" stroke-width="2" stroke-linecap="round" stroke-miterlimit="10" d="
					M24.84,30.009c-2.266-1.308-5.161-0.532-6.47,1.733c-1.307,2.265-0.53,5.161,1.735,6.468"/>
			</g>
		</g>
		<g opacity="0.2">
			<g>
				<defs>
					<rect id="SVGID_5_" x="17.628" y="79.901" width="9.105" height="10.838"/>
				</defs>
				<clipPath id="SVGID_22_">
					<use xlink:href="#SVGID_5_"  overflow="visible"/>
				</clipPath>
				
					<path clip-path="url(#SVGID_22_)" fill="none" stroke="#008FFF" stroke-width="2" stroke-linecap="round" stroke-miterlimit="10" d="
					M20.998,80.901c-2.265,1.309-3.042,4.205-1.734,6.469c1.308,2.266,4.204,3.041,6.469,1.734"/>
			</g>
		</g>
		<g opacity="0.2">
			<g>
				<defs>
					<rect id="SVGID_4_" x="61.111" y="109.106" width="11.47" height="6.735"/>
				</defs>
				<clipPath id="SVGID_23_">
					<use xlink:href="#SVGID_4_"  overflow="visible"/>
				</clipPath>
				
					<path clip-path="url(#SVGID_23_)" fill="none" stroke="#008FFF" stroke-width="2" stroke-linecap="round" stroke-miterlimit="10" d="
					M62.111,110.106c0,2.614,2.12,4.734,4.734,4.735c2.617,0.001,4.736-2.12,4.738-4.735"/>
			</g>
		</g>
		<g opacity="0.2">
			<g>
				<defs>
					<rect id="SVGID_3_" x="107.568" y="79.377" width="9.102" height="10.838"/>
				</defs>
				<clipPath id="SVGID_24_">
					<use xlink:href="#SVGID_3_"  overflow="visible"/>
				</clipPath>
				
					<path clip-path="url(#SVGID_24_)" fill="none" stroke="#008FFF" stroke-width="2" stroke-linecap="round" stroke-miterlimit="10" d="
					M108.568,88.58c2.264,1.308,5.16,0.531,6.469-1.73c1.305-2.268,0.531-5.164-1.734-6.472"/>
			</g>
		</g>
		<g opacity="0.2">
			<g>
				<defs>
					<rect id="SVGID_2_" x="43.578" y="37.317" width="46.158" height="44.236"/>
				</defs>
				<clipPath id="SVGID_25_">
					<use xlink:href="#SVGID_2_"  overflow="visible"/>
				</clipPath>
				
					<rect x="49.534" y="44.934" transform="matrix(0.866 -0.5 0.5 0.866 -20.7863 41.2899)" clip-path="url(#SVGID_25_)" fill="none" stroke="#008FFF" stroke-width="2" stroke-linecap="round" stroke-linejoin="round" stroke-miterlimit="10" width="34.247" height="28.999"/>
			</g>
		</g>
		<g opacity="0.2">
			<g>
				<defs>
					<rect id="SVGID_1_" x="81.521" y="92.835" width="19.672" height="17.037"/>
				</defs>
				<clipPath id="SVGID_26_">
					<use xlink:href="#SVGID_1_"  overflow="visible"/>
				</clipPath>
				<path clip-path="url(#SVGID_26_)" fill="#008FFF" d="M97.832,101.772c-0.494-0.861-0.199-1.963,0.66-2.461
					c0.861-0.497,1.961-0.202,2.459,0.66c0.496,0.859,0.201,1.963-0.656,2.461C99.431,102.926,98.33,102.632,97.832,101.772"/>
				<path clip-path="url(#SVGID_26_)" fill="#008FFF" d="M91.597,105.372c-0.496-0.86-0.199-1.963,0.66-2.459
					c0.859-0.498,1.961-0.204,2.457,0.658c0.496,0.86,0.203,1.963-0.656,2.459C93.197,106.527,92.093,106.233,91.597,105.372"/>
				<path clip-path="url(#SVGID_26_)" fill="#008FFF" d="M85.361,108.969c-0.494-0.858-0.201-1.961,0.66-2.457
					s1.961-0.201,2.459,0.659c0.494,0.861,0.199,1.962-0.66,2.458C86.962,110.129,85.859,109.833,85.361,108.969"/>
				<path clip-path="url(#SVGID_26_)" fill="#008FFF" d="M94.232,95.536c-0.496-0.861-0.201-1.961,0.66-2.459
					c0.861-0.496,1.961-0.202,2.459,0.658s0.201,1.963-0.656,2.459C95.832,96.692,94.73,96.396,94.232,95.536"/>
				<path clip-path="url(#SVGID_26_)" fill="#008FFF" d="M87.998,99.137c-0.498-0.861-0.201-1.965,0.66-2.461
					c0.859-0.495,1.959-0.201,2.457,0.66c0.496,0.861,0.203,1.961-0.656,2.458C89.597,100.292,88.492,99.997,87.998,99.137"/>
				<path clip-path="url(#SVGID_26_)" fill="#008FFF" d="M81.761,102.736c-0.496-0.86-0.201-1.962,0.66-2.458
					c0.859-0.496,1.959-0.201,2.459,0.658c0.496,0.861,0.201,1.963-0.658,2.459S82.259,103.596,81.761,102.736"/>
			</g>
		</g>
		<circle fill="none" stroke="#008FFF" stroke-width="2" stroke-miterlimit="10" cx="91.903" cy="44.88" r="5.563"/>
		<path fill="none" stroke="#008FFF" stroke-width="2" stroke-miterlimit="10" d="M91.902,79.581c-3.072,0-5.562-2.49-5.562-5.562
			c-0.002-3.072,2.492-5.564,5.561-5.563c3.074-0.002,5.566,2.491,5.564,5.563C97.464,77.09,94.974,79.582,91.902,79.581z"/>
		<path fill="none" stroke="#008FFF" stroke-width="2" stroke-miterlimit="10" d="M41.463,50.446
			c-3.072-0.001-5.563-2.491-5.563-5.565c-0.001-3.073,2.49-5.563,5.562-5.562c3.073-0.002,5.563,2.489,5.563,5.564
			C47.025,47.954,44.534,50.444,41.463,50.446z"/>
		<path fill="none" stroke="#008FFF" stroke-width="2" stroke-miterlimit="10" d="M66.622,35.911c-3.072,0-5.562-2.492-5.562-5.565
			c0-3.072,2.491-5.564,5.564-5.562c3.071-0.002,5.561,2.489,5.563,5.562C72.187,33.418,69.695,35.91,66.622,35.911z"/>
		<circle fill="none" stroke="#008FFF" stroke-width="2" stroke-miterlimit="10" cx="66.623" cy="88.491" r="5.564"/>
		<path fill="none" stroke="#008FFF" stroke-width="2" stroke-miterlimit="10" d="M41.463,79.581c-3.074,0-5.564-2.489-5.564-5.562
			c-0.001-3.072,2.49-5.564,5.563-5.565c3.073,0.003,5.563,2.493,5.563,5.565S44.535,79.581,41.463,79.581z"/>
	</g>
	<g>
		
			<line fill="none" stroke="#FFC200" stroke-width="2" stroke-linecap="round" stroke-miterlimit="10" x1="66.826" y1="22.144" x2="66.826" y2="14.632"/>
		
			<line fill="none" stroke="#FFC200" stroke-width="2" stroke-linecap="round" stroke-miterlimit="10" x1="59.62" y1="26.07" x2="53.115" y2="22.314"/>
		
			<line fill="none" stroke="#FFC200" stroke-width="2" stroke-linecap="round" stroke-miterlimit="10" x1="59.417" y1="34.274" x2="52.912" y2="38.03"/>
		
			<line fill="none" stroke="#FFC200" stroke-width="2" stroke-linecap="round" stroke-miterlimit="10" x1="66.421" y1="38.552" x2="66.421" y2="46.062"/>
		
			<line fill="none" stroke="#FFC200" stroke-width="2" stroke-linecap="round" stroke-miterlimit="10" x1="73.626" y1="34.625" x2="80.132" y2="38.381"/>
		
			<line fill="none" stroke="#FFC200" stroke-width="2" stroke-linecap="round" stroke-miterlimit="10" x1="73.83" y1="26.421" x2="80.333" y2="22.666"/>
		
			<line fill="none" stroke="#FFC200" stroke-width="2" stroke-linecap="round" stroke-miterlimit="10" x1="62.541" y1="23.229" x2="58.644" y2="16.807"/>
		
			<line fill="none" stroke="#FFC200" stroke-width="2" stroke-linecap="round" stroke-miterlimit="10" x1="58.417" y1="30.324" x2="50.907" y2="30.488"/>
		
			<line fill="none" stroke="#FFC200" stroke-width="2" stroke-linecap="round" stroke-miterlimit="10" x1="62.5" y1="37.443" x2="58.887" y2="44.028"/>
		
			<line fill="none" stroke="#FFC200" stroke-width="2" stroke-linecap="round" stroke-miterlimit="10" x1="70.707" y1="37.466" x2="74.603" y2="43.888"/>
		
			<line fill="none" stroke="#FFC200" stroke-width="2" stroke-linecap="round" stroke-miterlimit="10" x1="74.83" y1="30.371" x2="82.339" y2="30.207"/>
		
			<line fill="none" stroke="#FFC200" stroke-width="2" stroke-linecap="round" stroke-miterlimit="10" x1="70.748" y1="23.252" x2="74.359" y2="16.667"/>
		
			<line fill="none" stroke="#FFC200" stroke-width="2" stroke-linecap="round" stroke-miterlimit="10" x1="41.563" y1="36.32" x2="41.563" y2="28.81"/>
		
			<line fill="none" stroke="#FFC200" stroke-width="2" stroke-linecap="round" stroke-miterlimit="10" x1="34.357" y1="40.247" x2="27.853" y2="36.491"/>
		
			<line fill="none" stroke="#FFC200" stroke-width="2" stroke-linecap="round" stroke-miterlimit="10" x1="34.155" y1="48.451" x2="27.65" y2="52.207"/>
		
			<line fill="none" stroke="#FFC200" stroke-width="2" stroke-linecap="round" stroke-miterlimit="10" x1="41.158" y1="52.729" x2="41.158" y2="60.24"/>
		
			<line fill="none" stroke="#FFC200" stroke-width="2" stroke-linecap="round" stroke-miterlimit="10" x1="48.364" y1="48.802" x2="54.869" y2="52.558"/>
		
			<line fill="none" stroke="#FFC200" stroke-width="2" stroke-linecap="round" stroke-miterlimit="10" x1="48.567" y1="40.598" x2="55.072" y2="36.842"/>
		
			<line fill="none" stroke="#FFC200" stroke-width="2" stroke-linecap="round" stroke-miterlimit="10" x1="37.278" y1="37.406" x2="33.382" y2="30.984"/>
		
			<line fill="none" stroke="#FFC200" stroke-width="2" stroke-linecap="round" stroke-miterlimit="10" x1="33.155" y1="44.501" x2="25.646" y2="44.665"/>
		
			<line fill="none" stroke="#FFC200" stroke-width="2" stroke-linecap="round" stroke-miterlimit="10" x1="37.237" y1="51.62" x2="33.625" y2="58.205"/>
		
			<line fill="none" stroke="#FFC200" stroke-width="2" stroke-linecap="round" stroke-miterlimit="10" x1="45.443" y1="51.643" x2="49.34" y2="58.065"/>
		
			<line fill="none" stroke="#FFC200" stroke-width="2" stroke-linecap="round" stroke-miterlimit="10" x1="49.567" y1="44.548" x2="57.077" y2="44.384"/>
		
			<line fill="none" stroke="#FFC200" stroke-width="2" stroke-linecap="round" stroke-miterlimit="10" x1="45.484" y1="37.429" x2="49.097" y2="30.844"/>
		
			<line fill="none" stroke="#FF7900" stroke-width="2" stroke-linecap="round" stroke-miterlimit="10" x1="92.359" y1="65.814" x2="92.359" y2="58.302"/>
		
			<line fill="none" stroke="#FF7900" stroke-width="2" stroke-linecap="round" stroke-miterlimit="10" x1="85.152" y1="69.74" x2="78.648" y2="65.984"/>
		
			<line fill="none" stroke="#FF7900" stroke-width="2" stroke-linecap="round" stroke-miterlimit="10" x1="84.951" y1="77.944" x2="78.445" y2="81.7"/>
		
			<line fill="none" stroke="#FF7900" stroke-width="2" stroke-linecap="round" stroke-miterlimit="10" x1="91.953" y1="82.222" x2="91.953" y2="89.733"/>
		
			<line fill="none" stroke="#FF7900" stroke-width="2" stroke-linecap="round" stroke-miterlimit="10" x1="99.16" y1="78.294" x2="105.666" y2="82.05"/>
		
			<line fill="none" stroke="#FF7900" stroke-width="2" stroke-linecap="round" stroke-miterlimit="10" x1="99.363" y1="70.091" x2="105.867" y2="66.335"/>
		
			<line fill="none" stroke="#FF7900" stroke-width="2" stroke-linecap="round" stroke-miterlimit="10" x1="88.074" y1="66.899" x2="84.177" y2="60.477"/>
		
			<line fill="none" stroke="#FF7900" stroke-width="2" stroke-linecap="round" stroke-miterlimit="10" x1="83.951" y1="73.994" x2="76.441" y2="74.158"/>
		
			<line fill="none" stroke="#FF7900" stroke-width="2" stroke-linecap="round" stroke-miterlimit="10" x1="88.033" y1="81.113" x2="84.419" y2="87.699"/>
		
			<line fill="none" stroke="#FF7900" stroke-width="2" stroke-linecap="round" stroke-miterlimit="10" x1="96.24" y1="81.136" x2="100.136" y2="87.558"/>
		
			<line fill="none" stroke="#FF7900" stroke-width="2" stroke-linecap="round" stroke-miterlimit="10" x1="100.363" y1="74.041" x2="107.873" y2="73.877"/>
		
			<line fill="none" stroke="#FF7900" stroke-width="2" stroke-linecap="round" stroke-miterlimit="10" x1="96.281" y1="66.922" x2="99.892" y2="60.337"/>
		
			<line fill="none" stroke="#FF7900" stroke-width="2" stroke-linecap="round" stroke-miterlimit="10" x1="67.275" y1="79.962" x2="67.275" y2="72.451"/>
		
			<line fill="none" stroke="#FF7900" stroke-width="2" stroke-linecap="round" stroke-miterlimit="10" x1="60.068" y1="83.888" x2="53.563" y2="80.132"/>
		
			<line fill="none" stroke="#FF7900" stroke-width="2" stroke-linecap="round" stroke-miterlimit="10" x1="59.866" y1="92.092" x2="53.361" y2="95.848"/>
		
			<line fill="none" stroke="#FF7900" stroke-width="2" stroke-linecap="round" stroke-miterlimit="10" x1="66.869" y1="96.371" x2="66.869" y2="103.881"/>
		
			<line fill="none" stroke="#FF7900" stroke-width="2" stroke-linecap="round" stroke-miterlimit="10" x1="74.076" y1="92.443" x2="80.58" y2="96.199"/>
		
			<line fill="none" stroke="#FF7900" stroke-width="2" stroke-linecap="round" stroke-miterlimit="10" x1="74.277" y1="84.24" x2="80.783" y2="80.484"/>
		
			<line fill="none" stroke="#FF7900" stroke-width="2" stroke-linecap="round" stroke-miterlimit="10" x1="62.989" y1="81.047" x2="59.092" y2="74.625"/>
		
			<line fill="none" stroke="#FF7900" stroke-width="2" stroke-linecap="round" stroke-miterlimit="10" x1="58.866" y1="88.142" x2="51.355" y2="88.306"/>
		
			<line fill="none" stroke="#FF7900" stroke-width="2" stroke-linecap="round" stroke-miterlimit="10" x1="62.948" y1="95.261" x2="59.335" y2="101.847"/>
		
			<line fill="none" stroke="#FF7900" stroke-width="2" stroke-linecap="round" stroke-miterlimit="10" x1="71.154" y1="95.285" x2="75.052" y2="101.707"/>
		
			<line fill="none" stroke="#FF7900" stroke-width="2" stroke-linecap="round" stroke-miterlimit="10" x1="75.277" y1="88.189" x2="82.789" y2="88.026"/>
		
			<line fill="none" stroke="#FF7900" stroke-width="2" stroke-linecap="round" stroke-miterlimit="10" x1="71.195" y1="81.071" x2="74.808" y2="74.486"/>
		
			<line fill="none" stroke="#FFA300" stroke-width="2" stroke-linecap="round" stroke-miterlimit="10" x1="92.359" y1="36.859" x2="92.359" y2="29.348"/>
		
			<line fill="none" stroke="#FFA300" stroke-width="2" stroke-linecap="round" stroke-miterlimit="10" x1="85.152" y1="40.785" x2="78.648" y2="37.029"/>
		
			<line fill="none" stroke="#FFA300" stroke-width="2" stroke-linecap="round" stroke-miterlimit="10" x1="84.951" y1="48.989" x2="78.445" y2="52.745"/>
		
			<line fill="none" stroke="#FFA300" stroke-width="2" stroke-linecap="round" stroke-miterlimit="10" x1="91.953" y1="53.268" x2="91.953" y2="60.779"/>
		
			<line fill="none" stroke="#FFA300" stroke-width="2" stroke-linecap="round" stroke-miterlimit="10" x1="99.16" y1="49.34" x2="105.666" y2="53.096"/>
		
			<line fill="none" stroke="#FFA300" stroke-width="2" stroke-linecap="round" stroke-miterlimit="10" x1="99.363" y1="41.137" x2="105.867" y2="37.381"/>
		
			<line fill="none" stroke="#FFA300" stroke-width="2" stroke-linecap="round" stroke-miterlimit="10" x1="88.074" y1="37.944" x2="84.177" y2="31.522"/>
		
			<line fill="none" stroke="#FFA300" stroke-width="2" stroke-linecap="round" stroke-miterlimit="10" x1="83.951" y1="45.039" x2="76.441" y2="45.203"/>
		
			<line fill="none" stroke="#FFA300" stroke-width="2" stroke-linecap="round" stroke-miterlimit="10" x1="88.033" y1="52.158" x2="84.419" y2="58.744"/>
		
			<line fill="none" stroke="#FFA300" stroke-width="2" stroke-linecap="round" stroke-miterlimit="10" x1="96.24" y1="52.182" x2="100.136" y2="58.604"/>
		
			<line fill="none" stroke="#FFA300" stroke-width="2" stroke-linecap="round" stroke-miterlimit="10" x1="100.363" y1="45.086" x2="107.873" y2="44.923"/>
		
			<line fill="none" stroke="#FFA300" stroke-width="2" stroke-linecap="round" stroke-miterlimit="10" x1="96.281" y1="37.968" x2="99.892" y2="31.383"/>
		
			<line fill="none" stroke="#FFA300" stroke-width="2" stroke-linecap="round" stroke-miterlimit="10" x1="41.157" y1="65.964" x2="41.157" y2="58.453"/>
		
			<line fill="none" stroke="#FFA300" stroke-width="2" stroke-linecap="round" stroke-miterlimit="10" x1="33.951" y1="69.89" x2="27.446" y2="66.134"/>
		
			<line fill="none" stroke="#FFA300" stroke-width="2" stroke-linecap="round" stroke-miterlimit="10" x1="33.749" y1="78.095" x2="27.244" y2="81.851"/>
		
			<line fill="none" stroke="#FFA300" stroke-width="2" stroke-linecap="round" stroke-miterlimit="10" x1="40.752" y1="82.373" x2="40.752" y2="89.884"/>
		
			<line fill="none" stroke="#FFA300" stroke-width="2" stroke-linecap="round" stroke-miterlimit="10" x1="47.958" y1="78.445" x2="54.463" y2="82.201"/>
		
			<line fill="none" stroke="#FFA300" stroke-width="2" stroke-linecap="round" stroke-miterlimit="10" x1="48.161" y1="70.242" x2="54.666" y2="66.486"/>
		
			<line fill="none" stroke="#FFA300" stroke-width="2" stroke-linecap="round" stroke-miterlimit="10" x1="36.872" y1="67.05" x2="32.976" y2="60.628"/>
		
			<line fill="none" stroke="#FFA300" stroke-width="2" stroke-linecap="round" stroke-miterlimit="10" x1="32.749" y1="74.144" x2="25.239" y2="74.308"/>
		
			<line fill="none" stroke="#FFA300" stroke-width="2" stroke-linecap="round" stroke-miterlimit="10" x1="36.831" y1="81.263" x2="33.219" y2="87.849"/>
		
			<line fill="none" stroke="#FFA300" stroke-width="2" stroke-linecap="round" stroke-miterlimit="10" x1="45.037" y1="81.287" x2="48.934" y2="87.708"/>
		
			<line fill="none" stroke="#FFA300" stroke-width="2" stroke-linecap="round" stroke-miterlimit="10" x1="49.161" y1="74.191" x2="56.671" y2="74.029"/>
		
			<line fill="none" stroke="#FFA300" stroke-width="2" stroke-linecap="round" stroke-miterlimit="10" x1="45.078" y1="67.074" x2="48.691" y2="60.488"/>
	</g>
</g>
</svg>
