<?xml version="1.0" encoding="utf-8"?>
<!-- Generator: Adobe Illustrator 15.0.0, SVG Export Plug-In  -->
<!DOCTYPE svg PUBLIC "-//W3C//DTD SVG 1.1//EN" "http://www.w3.org/Graphics/SVG/1.1/DTD/svg11.dtd" [
	<!ENTITY ns_flows "http://ns.adobe.com/Flows/1.0/">
]>
<svg version="1.1"
	 xmlns="http://www.w3.org/2000/svg" xmlns:xlink="http://www.w3.org/1999/xlink" xmlns:a="http://ns.adobe.com/AdobeSVGViewerExtensions/3.0/"
	 x="0px" y="0px" width="331px" height="232px" viewBox="0 0 331 232" overflow="visible" enable-background="new 0 0 331 232"
	 xml:space="preserve">
<defs>
</defs>
<path fill="#008FFF" d="M193.85,5c1.479,0,3.832,1.36,4.573,2.64l28.322,49.056c0.741,1.277,0.74,3.98-0.004,5.265l-28.312,49.045
	c-0.749,1.288-3.103,2.651-4.58,2.651h-56.636c-1.48,0-3.819-1.349-4.558-2.64l-28.339-49.064c-0.74-1.278-0.74-3.979,0.004-5.264
	l28.347-49.07C133.395,6.346,135.732,5,137.214,5H193.85 M193.85,0h-56.636c-3.266,0-7.276,2.316-8.887,5.14L99.992,54.188
	c-1.638,2.824-1.638,7.448,0,10.272l28.335,49.058c1.611,2.815,5.621,5.139,8.887,5.139h56.636c3.257,0,7.268-2.324,8.903-5.139
	l28.318-49.058c1.637-2.824,1.637-7.448,0-10.272L202.753,5.14C201.118,2.316,197.107,0,193.85,0"/>
<path fill="#008FFF" d="M153.352,82.998c0,6.727,5.453,12.181,12.18,12.181c6.728,0,12.18-5.454,12.18-12.181"/>
<path fill="none" stroke="#008FFF" stroke-width="5" stroke-linecap="round" stroke-miterlimit="10" d="M144.757,72.438
	c0-5.093-4.129-9.222-9.222-9.222c-5.093,0-9.221,4.129-9.221,9.222"/>
<path fill="none" stroke="#008FFF" stroke-width="5" stroke-linecap="round" stroke-miterlimit="10" d="M204.75,72.438
	c0-5.093-4.129-9.222-9.222-9.222c-5.093,0-9.221,4.129-9.221,9.222"/>
<path fill="#008FFF" d="M193.85,118.476c1.479,0,3.832,1.36,4.573,2.64l28.322,49.055c0.741,1.277,0.74,3.98-0.004,5.266
	l-28.312,49.045c-0.749,1.288-3.103,2.651-4.58,2.651h-56.636c-1.48,0-3.819-1.349-4.558-2.64l-28.339-49.064
	c-0.74-1.278-0.74-3.979,0.004-5.264l28.347-49.07c0.727-1.273,3.064-2.619,4.546-2.619H193.85 M193.85,113.476h-56.636
	c-3.266,0-7.276,2.316-8.887,5.14l-28.335,49.047c-1.638,2.824-1.638,7.449,0,10.272l28.335,49.058
	c1.611,2.815,5.621,5.14,8.887,5.14h56.636c3.257,0,7.268-2.324,8.903-5.14l28.318-49.058c1.637-2.823,1.637-7.448,0-10.272
	l-28.318-49.047C201.118,115.792,197.107,113.476,193.85,113.476"/>
<path fill="#008FFF" d="M153.352,196.474c0,6.727,5.453,12.181,12.18,12.181c6.728,0,12.18-5.454,12.18-12.181"/>
<path fill="none" stroke="#008FFF" stroke-width="5" stroke-linecap="round" stroke-miterlimit="10" d="M144.757,185.914
	c0-5.092-4.129-9.222-9.222-9.222c-5.093,0-9.221,4.13-9.221,9.222"/>
<path fill="none" stroke="#008FFF" stroke-width="5" stroke-linecap="round" stroke-miterlimit="10" d="M204.75,185.914
	c0-5.092-4.129-9.222-9.222-9.222c-5.093,0-9.221,4.13-9.221,9.222"/>
<path fill="#008FFF" d="M95.086,62.329c1.479,0,3.832,1.36,4.573,2.64l28.322,49.056c0.741,1.277,0.74,3.98-0.004,5.265
	l-28.312,49.045c-0.749,1.288-3.103,2.651-4.58,2.651H38.45c-1.48,0-3.819-1.35-4.558-2.641L5.553,119.282
	c-0.74-1.278-0.74-3.979,0.004-5.264l28.347-49.07c0.727-1.273,3.064-2.619,4.546-2.619H95.086 M95.086,57.329H38.45
	c-3.266,0-7.276,2.316-8.887,5.14L1.229,111.517c-1.638,2.824-1.638,7.448,0,10.272l28.335,49.059
	c1.611,2.814,5.621,5.139,8.887,5.139h56.636c3.257,0,7.268-2.324,8.903-5.139l28.318-49.059c1.637-2.824,1.637-7.448,0-10.272
	L103.99,62.469C102.354,59.645,98.343,57.329,95.086,57.329"/>
<path fill="#008FFF" d="M54.588,140.326c0,6.728,5.453,12.182,12.18,12.182c6.728,0,12.18-5.454,12.18-12.182"/>
<path fill="none" stroke="#008FFF" stroke-width="5" stroke-linecap="round" stroke-miterlimit="10" d="M45.994,129.767
	c0-5.093-4.129-9.222-9.222-9.222c-5.093,0-9.221,4.129-9.221,9.222"/>
<path fill="none" stroke="#008FFF" stroke-width="5" stroke-linecap="round" stroke-miterlimit="10" d="M105.987,129.767
	c0-5.093-4.129-9.222-9.222-9.222c-5.093,0-9.221,4.129-9.221,9.222"/>
<path fill="#008FFF" d="M292.615,62.329c1.479,0,3.832,1.36,4.573,2.64l28.322,49.056c0.741,1.277,0.74,3.98-0.004,5.265
	l-28.312,49.045c-0.749,1.288-3.103,2.651-4.58,2.651h-56.637c-1.479,0-3.818-1.35-4.557-2.641l-28.34-49.063
	c-0.74-1.278-0.74-3.979,0.004-5.264l28.348-49.07c0.727-1.273,3.063-2.619,4.545-2.619H292.615 M292.615,57.329h-56.637
	c-3.266,0-7.275,2.316-8.887,5.14l-28.334,49.048c-1.639,2.824-1.639,7.448,0,10.272l28.334,49.059
	c1.611,2.814,5.621,5.139,8.887,5.139h56.637c3.257,0,7.268-2.324,8.903-5.139l28.318-49.059c1.637-2.824,1.637-7.448,0-10.272
	l-28.318-49.048C299.882,59.645,295.872,57.329,292.615,57.329"/>
<path fill="#008FFF" d="M252.117,140.326c0,6.728,5.453,12.182,12.18,12.182c6.729,0,12.18-5.454,12.18-12.182"/>
<path fill="none" stroke="#008FFF" stroke-width="5" stroke-linecap="round" stroke-miterlimit="10" d="M243.522,129.767
	c0-5.093-4.129-9.222-9.222-9.222c-5.094,0-9.221,4.129-9.221,9.222"/>
<path fill="none" stroke="#008FFF" stroke-width="5" stroke-linecap="round" stroke-miterlimit="10" d="M303.515,129.767
	c0-5.093-4.129-9.222-9.222-9.222s-9.222,4.129-9.222,9.222"/>
</svg>
