<?xml version="1.0" standalone="no"?>
<!DOCTYPE svg PUBLIC "-//W3C//DTD SVG 20010904//EN"
 "http://www.w3.org/TR/2001/REC-SVG-20010904/DTD/svg10.dtd">
<svg version="1.0" xmlns="http://www.w3.org/2000/svg"
 width="310.000000pt" height="310.000000pt" viewBox="0 0 310.000000 310.000000"
 preserveAspectRatio="xMidYMid meet">
<metadata>
Created by potrace 1.11, written by Peter Selinger 2001-2013
</metadata>
<g transform="translate(0.000000,310.000000) scale(0.100000,-0.100000)"
fill="#000000" stroke="none">
<path d="M350 3019 c0 -6 -5 -7 -11 -4 -11 7 -143 -54 -135 -63 7 -6 -20 -32
-33 -32 -6 0 -10 -3 -10 -7 4 -22 -2 -33 -13 -27 -8 5 -8 2 1 -10 11 -13 11
-16 2 -14 -14 3 -21 -17 -24 -67 -1 -16 -6 -33 -12 -37 -6 -5 -4 -8 5 -8 13 0
13 -1 0 -10 -13 -9 -13 -10 0 -10 13 0 13 -1 0 -10 -11 -7 -11 -10 -2 -10 8 0
10 -5 6 -12 -12 -19 -12 -48 0 -48 6 0 4 -5 -4 -10 -12 -8 -12 -10 -1 -10 11
0 11 -3 1 -15 -7 -9 -8 -15 -2 -15 12 0 10 -33 -3 -42 -6 -5 -4 -8 5 -8 13 0
13 -1 0 -10 -12 -8 -12 -10 -1 -10 11 0 11 -3 0 -17 -12 -15 -12 -16 1 -8 13
8 13 7 1 -8 -9 -12 -10 -17 -2 -17 9 0 9 -5 0 -21 -8 -16 -8 -20 1 -14 9 6 9
2 1 -14 -9 -16 -9 -21 1 -21 10 0 10 -2 -1 -9 -11 -7 -11 -9 0 -13 8 -3 10 -9
3 -19 -11 -18 -12 -50 -2 -71 6 -12 5 -18 -4 -18 -9 0 -9 -3 2 -10 13 -9 13
-10 0 -10 -12 0 -13 -2 -1 -9 11 -7 11 -9 0 -14 -11 -4 -11 -6 -1 -6 8 -1 10
-6 6 -13 -12 -19 -12 -48 0 -48 6 0 4 -5 -4 -10 -12 -8 -12 -10 -1 -10 11 0
11 -3 1 -15 -7 -9 -8 -15 -2 -15 12 0 10 -33 -3 -42 -6 -5 -4 -8 5 -8 13 0 13
-1 0 -10 -12 -8 -12 -10 -1 -10 11 0 11 -3 0 -17 -12 -15 -12 -16 1 -8 13 8
13 7 1 -8 -8 -11 -9 -17 -2 -17 6 0 8 -8 3 -22 -7 -21 -8 -44 -2 -58 2 -6 7
-26 14 -59 3 -13 13 -35 23 -50 9 -14 16 -27 14 -29 -1 -2 9 -12 24 -23 14
-12 23 -25 20 -30 -4 -5 2 -6 11 -2 12 5 15 3 9 -6 -5 -10 -2 -11 14 -6 15 4
21 3 19 -7 -2 -7 3 -12 10 -11 6 2 12 -3 12 -10 0 -8 4 -7 10 3 6 10 10 11 10
3 0 -7 3 -12 8 -12 4 1 9 0 12 -1 3 -1 52 -3 110 -4 58 -1 110 -5 117 -9 6 -4
14 -4 16 0 6 10 288 10 304 0 6 -4 14 -4 16 0 6 10 288 10 303 0 6 -3 14 -3
18 0 6 7 29 13 54 15 6 1 12 5 12 10 0 5 4 6 10 3 12 -7 70 22 70 36 0 6 5 7
10 4 6 -3 14 4 19 17 6 13 10 19 10 13 1 -5 12 8 25 30 13 22 22 43 20 47 -3
5 0 8 6 8 7 0 10 6 7 14 -3 8 1 17 9 20 9 3 12 11 8 18 -4 6 -7 95 -7 197 1
124 -3 191 -11 200 -8 11 -8 13 0 8 9 -5 12 59 11 248 0 141 -4 258 -9 261 -4
3 -6 9 -3 14 7 11 -11 47 -32 68 -7 8 -11 17 -8 21 2 5 -7 14 -20 21 -13 7
-22 16 -20 20 2 4 -11 13 -30 20 -19 8 -35 17 -35 22 0 4 -9 8 -20 8 -11 0
-20 6 -20 13 0 9 -2 9 -8 0 -4 -7 -13 -9 -21 -4 -7 5 -28 5 -47 1 -19 -4 -37
-4 -40 1 -3 5 -13 5 -23 -1 -10 -5 -21 -6 -25 -3 -9 9 -126 10 -126 1 0 -4
-13 -3 -29 2 -15 4 -34 4 -42 0 -7 -5 -17 -6 -22 -3 -12 7 -147 10 -147 3 0
-3 -11 -5 -25 -5 -14 0 -25 3 -25 7 0 6 -8 6 -45 -2 -5 -1 -12 -1 -15 0 -14 5
-130 4 -130 -2 0 -4 -13 -3 -29 2 -15 4 -34 4 -42 0 -7 -5 -16 -7 -19 -5 -16
10 -60 13 -60 4z"/>
<path d="M2250 3021 c-8 -6 -18 -7 -22 -5 -4 3 -8 -1 -8 -8 0 -9 -3 -9 -10 2
-8 12 -10 12 -10 1 0 -8 -3 -11 -6 -8 -4 3 -15 2 -25 -3 -10 -6 -29 -11 -43
-12 -15 -1 -26 -6 -26 -11 0 -5 -7 -7 -15 -3 -8 3 -18 -1 -22 -8 -5 -8 -17
-16 -28 -18 -11 -1 -26 -11 -33 -20 -7 -10 -20 -18 -28 -18 -8 0 -14 -5 -14
-11 0 -5 -4 -8 -8 -5 -5 3 -14 -4 -22 -14 -8 -10 -17 -17 -22 -14 -4 3 -8 0
-8 -6 0 -6 -5 -8 -12 -4 -6 4 -8 3 -4 -4 3 -6 -4 -18 -16 -26 -12 -9 -20 -16
-16 -16 4 0 -11 -19 -32 -42 -22 -23 -37 -45 -35 -49 3 -4 -2 -10 -11 -13 -8
-3 -12 -10 -9 -16 3 -5 1 -10 -4 -10 -6 0 -11 -7 -11 -15 0 -8 -5 -15 -11 -15
-6 0 -9 -7 -5 -15 3 -8 1 -15 -5 -15 -6 0 -7 -4 -4 -10 3 -5 1 -10 -5 -10 -6
0 -8 -4 -5 -10 3 -5 1 -10 -5 -10 -6 0 -8 -5 -5 -11 4 -5 -1 -19 -11 -30 -17
-19 -17 -20 2 -14 17 6 17 5 4 -7 -9 -7 -15 -23 -14 -35 1 -13 -3 -23 -9 -23
-5 0 -4 -7 3 -15 7 -8 8 -15 3 -15 -10 0 -11 -145 -1 -156 4 -4 3 -13 -3 -21
-9 -10 -8 -13 1 -13 7 0 10 -7 6 -15 -3 -8 0 -15 7 -15 8 0 8 -3 -2 -9 -10 -6
-10 -10 -1 -16 6 -4 9 -13 6 -20 -3 -8 -1 -15 4 -17 6 -2 11 -15 12 -30 1 -16
6 -28 10 -28 4 0 8 -9 8 -20 0 -12 7 -20 18 -20 11 0 13 -3 5 -8 -8 -5 -8 -11
1 -24 7 -10 16 -14 20 -10 4 4 7 2 6 -3 -4 -20 13 -55 23 -48 6 4 8 0 4 -11
-4 -10 -3 -15 3 -11 6 3 10 2 10 -2 0 -11 87 -103 97 -103 5 0 15 -9 23 -20 8
-11 20 -20 27 -20 7 0 13 -5 13 -11 0 -5 4 -8 9 -4 5 3 16 -2 25 -11 9 -8 20
-12 26 -9 6 4 9 1 8 -6 -2 -7 2 -13 7 -14 6 0 16 -4 23 -8 6 -5 17 -5 22 -2 6
3 10 1 10 -4 0 -6 9 -11 20 -11 11 0 20 -6 20 -12 0 -9 4 -8 10 2 7 12 10 12
10 1 0 -7 6 -11 15 -8 8 4 17 2 20 -3 3 -5 14 -7 25 -5 11 2 20 0 20 -5 0 -9
19 -8 37 3 6 4 14 4 17 -1 3 -5 24 -8 48 -7 24 1 49 -4 57 -9 11 -8 13 -8 8 1
-10 16 14 22 37 11 12 -7 16 -7 12 0 -3 5 1 12 9 16 8 3 15 0 15 -7 0 -8 4 -6
10 3 5 8 10 11 10 6 0 -5 8 -2 17 5 15 12 16 12 8 -1 -6 -12 -5 -13 6 -2 7 6
21 12 31 12 10 0 18 5 18 11 0 7 10 9 25 7 13 -3 22 -2 20 2 -5 8 24 24 38 21
4 0 10 6 13 14 3 8 10 13 14 10 4 -3 22 8 39 25 18 16 35 30 39 32 4 1 14 8
22 15 8 7 24 20 35 29 11 8 13 12 5 8 -8 -4 1 8 21 27 35 34 39 40 39 60 0 5
4 8 9 5 5 -3 12 1 15 10 4 10 2 13 -7 9 -6 -4 -4 0 5 8 17 14 43 65 40 80 -1
4 3 7 9 7 5 0 8 4 4 9 -3 5 1 16 9 24 8 8 12 18 8 21 -3 4 0 11 8 16 12 8 12
10 1 10 -11 0 -11 3 -1 15 7 9 10 18 7 22 -4 3 -1 15 5 26 11 22 17 156 7 162
-3 2 -4 20 -3 39 2 20 -1 38 -6 41 -5 3 -7 12 -3 20 3 9 -1 15 -8 15 -11 0
-11 3 1 10 11 7 11 10 2 10 -7 0 -10 5 -7 10 3 6 1 10 -5 10 -6 0 -9 4 -5 10
6 10 -13 50 -30 62 -6 5 -4 8 5 8 11 1 10 4 -4 15 -11 8 -16 15 -12 15 4 0 -7
20 -24 44 -16 25 -30 49 -30 55 0 6 -7 11 -16 11 -8 0 -12 5 -9 10 3 6 -1 13
-9 16 -9 3 -13 11 -9 17 4 7 0 8 -13 3 -10 -4 -16 -4 -12 -1 9 9 -23 45 -34
39 -5 -3 -7 -2 -6 3 2 4 -1 9 -5 10 -5 1 -17 11 -26 22 -10 12 -23 21 -30 21
-6 0 -11 5 -11 11 0 6 -7 9 -15 5 -8 -3 -14 0 -12 6 1 7 -4 13 -10 14 -7 1
-16 3 -20 4 -5 1 -11 2 -15 1 -5 0 -8 4 -8 9 0 6 -6 10 -14 10 -7 0 -26 7 -42
14 -15 8 -31 13 -36 10 -4 -3 -8 -1 -8 3 0 5 -8 9 -17 9 -10 0 -29 4 -42 8
-18 6 -22 5 -15 -5 6 -11 4 -11 -10 0 -17 14 -91 19 -102 8 -4 -3 -16 -2 -28
3 -13 5 -30 4 -40 -2 -14 -8 -17 -7 -12 1 9 13 6 14 -14 2z"/>
<path d="M201 1435 c-1 -6 -9 -11 -18 -12 -41 -3 -74 -10 -81 -18 -4 -4 -1 -5
7 0 9 5 12 4 7 -3 -4 -7 -13 -12 -19 -12 -7 0 -20 -13 -29 -28 -14 -23 -15
-32 -5 -42 8 -8 8 -11 1 -7 -7 4 -14 0 -18 -8 -3 -8 0 -15 7 -15 8 0 6 -4 -3
-10 -11 -7 -11 -10 -2 -10 7 0 11 -4 7 -9 -3 -5 0 -13 6 -16 5 -4 8 -13 5 -21
-3 -8 -2 -14 3 -14 4 0 16 -18 26 -40 10 -22 22 -40 27 -40 4 0 8 -7 8 -16 0
-8 7 -22 15 -31 8 -8 13 -19 10 -24 -4 -5 -2 -9 3 -9 5 0 15 -13 22 -30 7 -16
16 -27 21 -24 5 3 9 2 8 -3 -4 -25 2 -43 13 -37 8 5 9 2 5 -9 -3 -10 -2 -17 3
-17 6 0 17 -18 26 -40 9 -22 21 -40 26 -40 6 0 8 -9 5 -21 -3 -12 -3 -18 0
-15 9 8 34 -15 27 -25 -3 -5 0 -9 6 -9 6 0 8 -4 5 -10 -3 -5 1 -10 11 -10 13
0 14 -3 4 -15 -10 -12 -9 -15 5 -15 10 0 16 -3 12 -6 -3 -3 3 -15 14 -27 10
-11 19 -29 19 -38 0 -10 6 -22 14 -26 8 -4 15 -11 16 -15 2 -16 14 -43 21 -48
4 -3 9 -12 11 -20 2 -8 11 -22 21 -32 10 -9 20 -26 22 -38 2 -13 13 -29 24
-36 10 -8 18 -22 17 -31 -2 -10 5 -25 15 -34 10 -9 16 -19 12 -23 -3 -3 -1 -6
6 -6 7 0 9 -5 6 -10 -3 -6 -1 -10 6 -10 7 0 10 -3 6 -6 -3 -4 1 -13 9 -21 8
-8 12 -18 9 -23 -3 -4 2 -11 11 -14 8 -3 13 -10 10 -15 -3 -4 3 -16 14 -26 11
-10 17 -22 14 -26 -3 -5 0 -9 7 -9 7 0 10 -3 6 -6 -6 -6 -4 -9 44 -64 17 -19
28 -28 24 -20 -4 9 -1 8 8 -3 8 -10 19 -17 23 -16 5 1 11 0 14 -1 16 -6 52 -6
56 1 2 5 12 5 21 2 11 -4 14 -3 9 5 -4 7 -1 12 8 12 9 0 16 5 16 11 0 5 4 8 9
5 4 -3 17 10 27 29 10 19 22 35 26 35 5 0 7 3 6 7 -3 16 25 62 35 56 6 -3 7
-1 3 5 -3 6 -1 14 5 17 5 4 8 14 5 22 -3 8 -2 12 2 9 4 -2 15 9 25 25 10 18
12 28 4 24 -6 -4 -4 0 6 8 9 8 17 19 17 25 0 5 8 13 17 16 14 6 15 9 4 15 -10
7 -9 10 3 14 9 4 16 13 16 22 0 8 5 15 11 15 5 0 7 4 4 10 -3 5 -1 10 6 10 7
0 10 3 6 6 -3 3 -1 11 4 18 11 12 52 78 54 86 6 24 30 58 38 53 6 -3 7 -1 4 4
-4 6 3 22 14 37 11 14 17 26 12 26 -4 0 3 10 17 21 14 11 19 18 12 14 -11 -6
-11 -3 0 16 7 13 18 27 23 31 6 4 6 8 1 8 -5 0 1 8 12 19 24 20 30 37 10 25
-9 -5 -9 -3 1 9 7 9 17 14 22 11 5 -3 6 1 3 9 -3 8 0 18 5 22 6 3 9 11 6 16
-4 5 1 9 9 9 9 0 15 3 15 8 -1 4 0 10 1 15 1 4 3 13 4 20 0 6 8 12 16 12 8 1
14 7 12 14 -2 8 5 23 15 34 13 15 14 18 3 13 -8 -4 -4 2 10 14 14 12 18 18 10
14 -10 -5 -8 1 5 17 30 35 55 85 48 93 -3 3 -1 6 6 6 7 0 9 5 6 10 -3 6 0 10
8 10 14 0 21 23 31 93 2 15 0 27 -5 27 -5 0 -8 3 -8 8 4 22 -2 42 -11 37 -6
-3 -7 1 -4 9 4 11 0 16 -10 16 -9 0 -16 5 -16 10 0 6 -9 10 -20 10 -11 0 -20
4 -20 9 0 4 -10 8 -22 7 -13 -1 -35 1 -50 5 -16 4 -28 4 -28 0 0 -4 -22 -5
-50 -1 -27 4 -50 3 -50 -2 0 -4 -5 -8 -11 -8 -5 0 -8 4 -4 9 3 6 -6 6 -24 1
-21 -6 -31 -5 -35 3 -3 8 -5 8 -5 -1 -1 -10 -6 -10 -21 -2 -14 7 -20 7 -20 0
0 -5 -5 -10 -11 -10 -5 0 -8 3 -6 8 3 4 -19 7 -49 7 -30 0 -54 -3 -54 -7 0 -5
-5 -8 -11 -8 -5 0 -8 4 -4 9 3 6 -6 6 -24 1 -21 -6 -31 -5 -35 3 -3 8 -5 8 -5
-1 -1 -10 -6 -10 -21 -2 -14 7 -20 7 -20 0 0 -5 -5 -10 -11 -10 -5 0 -8 3 -6
8 3 4 -19 7 -49 7 -30 0 -54 -3 -54 -7 0 -5 -5 -8 -11 -8 -5 0 -8 4 -4 9 3 6
-6 6 -24 1 -21 -6 -31 -5 -35 3 -3 8 -5 8 -5 -1 -1 -10 -6 -10 -21 -2 -14 7
-20 7 -20 0 0 -5 -5 -10 -11 -10 -5 0 -8 4 -5 8 3 5 -1 9 -9 9 -8 0 -15 -4
-15 -9 0 -4 -5 -8 -11 -8 -5 0 -8 4 -4 9 3 6 -6 6 -24 1 -21 -6 -31 -5 -35 3
-3 8 -5 8 -5 -1 -1 -10 -6 -10 -21 -2 -14 7 -20 7 -20 0 0 -5 -5 -10 -11 -10
-5 0 -8 3 -6 8 3 4 -19 7 -49 7 -30 0 -54 -3 -54 -7 0 -5 -5 -8 -11 -8 -5 0
-8 4 -4 9 3 6 -6 6 -24 1 -21 -6 -31 -5 -35 3 -3 8 -5 8 -5 -1 -1 -10 -6 -10
-21 -2 -14 7 -20 7 -20 0 0 -5 -5 -10 -11 -10 -5 0 -8 4 -5 8 2 4 -4 8 -14 8
-10 0 -16 -4 -14 -8 3 -4 1 -8 -5 -8 -5 0 -12 6 -14 13 -3 6 -6 7 -6 2z"/>
<path d="M1970 1430 c0 -4 -8 -7 -17 -6 -27 4 -99 -45 -86 -58 4 -3 1 -6 -5
-6 -7 0 -11 -3 -10 -7 3 -16 -15 -43 -25 -36 -5 3 -7 1 -3 -5 3 -6 2 -13 -4
-17 -6 -4 -8 -11 -5 -16 4 -5 1 -9 -5 -9 -6 0 -9 -4 -6 -9 3 -5 -1 -12 -10
-15 -8 -3 -12 -10 -9 -16 3 -5 2 -10 -3 -10 -6 0 -13 -11 -16 -25 -4 -14 -11
-25 -17 -25 -6 0 -7 -4 -4 -10 3 -5 1 -10 -4 -10 -6 0 -11 -7 -11 -15 0 -8 -5
-15 -11 -15 -5 0 -7 -5 -4 -10 3 -6 -1 -13 -9 -16 -9 -3 -13 -10 -11 -15 3 -4
-3 -17 -14 -28 -11 -11 -17 -22 -14 -25 4 -3 1 -6 -6 -6 -7 0 -10 -4 -6 -9 3
-5 -1 -16 -9 -24 -8 -8 -12 -17 -9 -21 4 -3 1 -6 -5 -6 -7 0 -12 -6 -12 -13 0
-7 -9 -23 -20 -35 -12 -12 -18 -22 -15 -22 3 0 1 -9 -5 -20 -6 -12 -16 -18
-23 -14 -9 5 -9 4 0 -6 9 -10 7 -17 -7 -32 -13 -14 -17 -32 -15 -66 3 -59 3
-58 18 -74 21 -23 47 -75 40 -82 -3 -3 -1 -6 5 -6 7 0 12 -7 12 -16 0 -8 5
-12 10 -9 6 3 10 -3 10 -14 0 -12 5 -21 11 -21 5 0 8 -4 5 -9 -4 -5 -2 -11 3
-13 5 -1 11 -9 13 -17 2 -8 11 -23 21 -33 10 -10 15 -23 12 -28 -4 -6 -1 -10
4 -10 6 0 11 -7 11 -15 0 -8 5 -15 10 -15 6 0 10 -7 10 -16 0 -8 4 -12 10 -9
6 3 7 -1 4 -9 -4 -10 -1 -16 7 -16 7 0 10 -3 6 -6 -3 -4 1 -13 9 -21 8 -8 12
-19 9 -24 -4 -5 -1 -9 4 -9 6 0 11 -7 11 -15 0 -8 5 -15 10 -15 6 0 10 -9 10
-21 0 -13 4 -18 12 -13 7 5 9 2 5 -9 -3 -9 0 -18 9 -21 8 -3 14 -12 14 -21 0
-8 5 -15 12 -15 6 0 9 -3 5 -6 -7 -7 41 -53 57 -56 6 0 16 -2 21 -2 6 -1 15
-5 22 -9 6 -4 14 -3 18 2 3 6 13 7 21 4 23 -9 255 -9 261 0 2 4 9 4 16 0 15
-9 348 -10 354 0 2 4 11 7 19 7 17 0 55 36 47 44 -3 3 2 8 11 12 9 3 16 11 16
16 0 6 8 17 18 25 9 8 11 12 5 8 -18 -9 -16 6 2 19 9 6 17 21 17 33 1 13 7 19
15 16 8 -3 13 -2 12 3 -4 16 20 64 31 64 6 0 9 4 5 9 -3 5 2 16 11 25 8 9 16
25 17 35 0 11 4 18 8 15 7 -4 23 26 20 39 0 4 6 10 14 13 8 3 13 10 10 14 -3
5 2 16 11 24 8 9 12 16 8 16 -4 0 1 7 12 15 10 8 15 15 10 15 -5 0 -3 7 4 15
7 8 10 15 6 15 -3 0 3 9 14 20 11 11 20 27 20 35 0 8 5 15 10 15 6 0 10 7 10
15 0 8 5 15 11 15 5 0 7 5 4 10 -3 6 0 10 7 10 9 0 9 3 -2 10 -12 8 -12 10 -1
10 8 0 11 7 8 20 -3 10 0 21 7 24 8 3 7 5 -1 5 -7 1 -10 8 -7 16 4 8 2 15 -4
15 -5 0 -13 7 -16 16 -4 10 -2 13 7 8 6 -4 -1 8 -18 26 -16 18 -23 30 -15 26
12 -6 12 -5 -1 6 -9 7 -14 19 -11 27 3 8 0 11 -6 7 -10 -6 -28 30 -24 46 1 5
-3 7 -9 5 -6 -1 -14 4 -17 12 -3 9 0 11 9 7 8 -4 4 1 -8 12 -13 11 -23 27 -23
36 0 9 -4 16 -10 16 -5 0 -10 7 -10 15 0 8 -5 15 -11 15 -5 0 -8 4 -5 9 3 5
-5 20 -19 35 -13 14 -19 26 -12 26 7 0 6 4 -3 10 -8 5 -15 15 -15 22 -1 7 -7
12 -14 10 -7 -1 -10 2 -7 7 4 5 1 13 -5 16 -5 4 -8 13 -5 21 3 8 -1 14 -10 14
-8 0 -12 5 -9 10 3 6 1 10 -5 10 -6 0 -8 5 -5 10 3 6 2 10 -2 10 -5 0 -15 16
-22 35 -7 19 -17 35 -22 35 -5 0 -9 5 -9 11 0 12 -30 44 -30 32 0 -4 -5 0 -11
10 -6 9 -15 15 -20 11 -5 -3 -16 0 -24 6 -11 9 -15 9 -15 1 0 -9 -5 -9 -20 -1
-15 8 -20 8 -20 -2 0 -9 -3 -9 -10 2 -7 11 -10 11 -10 2 0 -10 -5 -10 -20 -2
-14 7 -20 7 -20 0 0 -5 -5 -10 -11 -10 -5 0 -8 3 -6 8 3 4 -19 7 -49 7 -30 0
-54 -3 -54 -7 0 -5 -5 -8 -11 -8 -5 0 -8 4 -4 9 3 6 -6 6 -24 1 -21 -6 -31 -5
-35 3 -3 8 -5 8 -5 -1 -1 -10 -6 -10 -21 -2 -14 7 -20 7 -20 0 0 -5 -5 -10
-11 -10 -5 0 -8 4 -4 9 3 6 -6 6 -24 1 -21 -6 -31 -5 -35 3 -3 9 -5 9 -5 0 -1
-8 -10 -9 -31 -3 -21 6 -30 5 -30 -3 0 -7 -4 -6 -10 3 -5 8 -10 10 -10 5 0
-13 -63 -13 -72 0 -5 6 -8 6 -8 -2 0 -8 -9 -9 -30 -3 -16 5 -30 5 -30 0z"/>
</g>
</svg>
